# xmcd CD database file
#
# Track frame offsets:
#	150
#	17742
#	32031
#	46070
#	64004
#	76698
#	92338
#	104832
#	118563
#	136867
#	153840
#	169864
#	188024
#	203817
#	216986
#	233630
#	248165
#	264164
#
# Disc length: 3702 seconds
#
# Revision: 0
# Processed by: cddbd v1.5.2PL0 Copyright (c) Steve Scherf et al.
# Submitted via: Feurio! 1.68 - http://www.feurio.com
#
DISCID=e00e7412
DTITLE=Various Artist - Country Rider
DYEAR=2007
DGENRE=Country
TTITLE0=Mitch Snow - What Happened In Bandera
TTITLE1=William Ray - Load On My Mind
TTITLE2=Brian Glenn - Re-Elect Jesus
TTITLE3=Bruce Greaves - Show Me The Way
TTITLE4=Dr. Fry's Texas Medicine Band - Pipeline
TTITLE5=Leon Turner - I Never Did Before
TTITLE6=Ray Sanders - Breakdown
TTITLE7=Marily McConnell - Send Me The Pillow That You Dream On
TTITLE8=Stan Lahon - Living The Single Life
TTITLE9=Phillip Clarkson - In My Time
TTITLE10=Bruce Greaves - I Need Somebody To Hold Me
TTITLE11=Suzie Merwine - Mind Of A Fool
TTITLE12=Phillip Clarkson - My Cowboy Hat
TTITLE13=Captain 'T' (John Hunnicut) - On Missionary's Road
TTITLE14=Julie Maners - Star To Guide You Home
TTITLE15=Lance Miller - I Want To Be
TTITLE16=B. Jeff Stone - The Blizzard
TTITLE17=B. Jeff Stone - Coletta
EXTD=
EXTT0=
EXTT1=
EXTT2=
EXTT3=
EXTT4=
EXTT5=
EXTT6=
EXTT7=
EXTT8=
EXTT9=
EXTT10=
EXTT11=
EXTT12=
EXTT13=
EXTT14=
EXTT15=
EXTT16=
EXTT17=
PLAYORDER=
